<?xml version="1.0" encoding="utf-8"?>
<!-- Generator: Adobe Illustrator 16.0.0, SVG Export Plug-In . SVG Version: 6.00 Build 0)  -->
<!DOCTYPE svg PUBLIC "-//W3C//DTD SVG 1.1//EN" "http://www.w3.org/Graphics/SVG/1.1/DTD/svg11.dtd" [
	<!ENTITY ns_flows "http://ns.adobe.com/Flows/1.0/">
	<!ENTITY ns_extend "http://ns.adobe.com/Extensibility/1.0/">
	<!ENTITY ns_ai "http://ns.adobe.com/AdobeIllustrator/10.0/">
	<!ENTITY ns_graphs "http://ns.adobe.com/Graphs/1.0/">
]>
<svg version="1.1" id="Selected_Items" xmlns:x="&ns_extend;" xmlns:i="&ns_ai;" xmlns:graph="&ns_graphs;"
	 xmlns="http://www.w3.org/2000/svg" xmlns:xlink="http://www.w3.org/1999/xlink" xmlns:a="http://ns.adobe.com/AdobeSVGViewerExtensions/3.0/"
	 x="0px" y="0px" width="68px" height="68px" viewBox="0 0 68 68" enable-background="new 0 0 68 68" xml:space="preserve">
<path fill-rule="evenodd" clip-rule="evenodd" fill="#333333" d="M34,0c9.389-0.004,17.414,3.321,24.075,9.975
	C64.695,16.602,68.003,24.61,68,34c0.003,9.38-3.306,17.396-9.925,24.05l-0.025,0.025C51.396,64.694,43.38,68.002,34,68
	c-9.346,0.003-17.346-3.305-24-9.925H9.976C3.321,51.414-0.004,43.389,0,34c0.004-9.39,3.337-17.398,10-24.025H9.976
	C16.637,3.32,24.646-0.005,34,0z M55.226,12.825C49.354,6.946,42.278,4.004,34,4c-8.245,0.005-15.304,2.946-21.175,8.825H12.8
	C6.93,18.665,3.997,25.723,4,34c0.005,8.278,2.946,15.353,8.825,21.225H12.8C18.68,61.072,25.746,63.997,34,64
	c8.275-0.002,15.35-2.919,21.226-8.75l0.024-0.025C61.081,49.35,63.998,42.275,64,34C63.997,25.723,61.072,18.665,55.226,12.825z"/>
</svg>
